# xmcd
#
# Track frame offsets: 
#        150
#        10070
#        19982
#        31071
#        42038
#        54543
#        65812
#        77521
#        87791
#        95808
#        106087
#        114899
#        126231
#        136141
#        146651
#        155891
#        172380
#        185275
#
# Disc length: 2716 seconds
#
# Revision: 7
# Processed by: cddbd v1.5.2PL0 Copyright (c) Steve Scherf et al.
# Submitted via: ExactAudioCopy v1.0b3
#
DISCID=ef0a9a12
DTITLE=Cash, Johnny - A Boy Named Sue [Disc 2]
DYEAR=2006
DGENRE=Country
TTITLE0=Rock Island Line
TTITLE1=Born To Lose
TTITLE2=The Ways Of A Woman In Love
TTITLE3=Cold, Cold Heart
TTITLE4=I Walk The Line
TTITLE5=I Just Thought You'd Like To Know
TTITLE6=Thanks A Lot
TTITLE7=Goodbye Little Darlin'
TTITLE8=Hey Good Lookin'
TTITLE9=I Could Never Be Ashamed Of You
TTITLE10=I Forgot To Remember To Forget
TTITLE11=I Love You Because
TTITLE12=Just About Time
TTITLE13=There You Go
TTITLE14=Two Timin' Woman
TTITLE15=City Of New Orleans
TTITLE16=Jackson
TTITLE17=Orange Blossom Special
EXTD=
EXTT0=
EXTT1=
EXTT2=
EXTT3=
EXTT4=
EXTT5=
EXTT6=
EXTT7=
EXTT8=
EXTT9=
EXTT10=
EXTT11=
EXTT12=
EXTT13=
EXTT14=
EXTT15=
EXTT16=
EXTT17=
PLAYORDER=
